<svg width="64" height="64" viewBox="0 0 64 64" fill="none" xmlns="http://www.w3.org/2000/svg">
  <defs>
    <linearGradient id="g" x1="8" y1="8" x2="56" y2="56" gradientUnits="userSpaceOnUse">
      <stop offset="0" stop-color="#00BFFF"/>
      <stop offset="1" stop-color="#86E3FF"/>
    </linearGradient>
  </defs>
  <circle cx="32" cy="32" r="9" fill="#10172A" stroke="url(#g)" stroke-width="4"/>
  <path d="M57 36V28L51.4 26.4C50.9 24.4 50.1 22.5 49 20.8L51.9 15.7L46.3 10.1L41.2 13C39.5 11.9 37.6 11.1 35.6 10.6L34 5H26L24.4 10.6C22.4 11.1 20.5 11.9 18.8 13L13.7 10.1L8.1 15.7L11 20.8C9.9 22.5 9.1 24.4 8.6 26.4L3 28V36L8.6 37.6C9.1 39.6 9.9 41.5 11 43.2L8.1 48.3L13.7 53.9L18.8 51C20.5 52.1 22.4 52.9 24.4 53.4L26 59H34L35.6 53.4C37.6 52.9 39.5 52.1 41.2 51L46.3 53.9L51.9 48.3L49 43.2C50.1 41.5 50.9 39.6 51.4 37.6L57 36Z" fill="#0F1B38" stroke="url(#g)" stroke-width="3" stroke-linejoin="round"/>
</svg>
