<?xml version="1.0" encoding="UTF-8"?>
<svg width="254.08mm" height="193.28mm" version="1.1" viewBox="0 0 254.08 193.28" xml:space="preserve" xmlns="http://www.w3.org/2000/svg" xmlns:cc="http://creativecommons.org/ns#" xmlns:dc="http://purl.org/dc/elements/1.1/" xmlns:rdf="http://www.w3.org/1999/02/22-rdf-syntax-ns#"><g transform="translate(-129.96 -265.76)"><g transform="scale(.95714 1.0448)" style="stroke-width:1.5238" aria-label="Macintosh"><path d="m139.11 386.78q-1.1378 0-1.1378 1.0565 0 0.65014 0.2438 0.89395 0.32507 0.16253 0.81268 0.2438 0.4876 0 1.1377 0.0813 0.65014 0 1.3816 0.2438 1.1378 0.40634 1.4628 1.1377 0.32507 0.73141 0.32507 2.6006 0 0.65014-0.0813 1.0565 0 0.40634 0 0.56887l-1.3816 27.793q-0.16253 3.657-0.32507 6.1763-0.16253 2.438-0.4876 3.9821-0.32507 1.5441-0.97521 2.2755-0.65014 0.65014-1.7066 0.65014-0.2438 0-0.65014 0-0.32507-0.0813-0.81268-0.0813-1.1377 0-1.1377 1.219 0 1.3003 1.9504 1.3003 0.89394 0 2.113-0.16253 1.3003-0.16254 2.9256-0.16254 1.8692 0 3.2507 0.16254 1.4628 0.16253 2.3568 0.16253 2.0317 0 2.0317-1.3003 0-1.219-1.5441-1.219-0.32507 0-0.56887 0.0813-0.24381 0-0.48761 0-2.3568 0-3.0069-1.7066-0.65014-1.7879-0.65014-5.6075 0-0.89394 0-2.0317 0.0813-1.1377 0.16254-2.5193l1.3816-24.868q0.0813-1.5441 0.4876-1.5441 0.16254 0 0.56887 1.0565l12.109 36.977q0.2438 0.97521 1.3003 0.97521 0.89394 0 1.3003-1.219l11.946-36.814q0.24381-0.81267 0.48761-0.81267 0.40634 0 0.40634 0.89394l0.56887 30.069v1.8692q0 1.4628-0.0813 2.438t-0.56887 1.6254q-0.40634 0.56888-1.3003 0.81268-0.81268 0.2438-2.3568 0.2438-1.219 0-1.219 1.219 0 1.3003 1.6254 1.3003 1.1377 0 3.0882-0.2438 2.0317-0.32507 4.7135-0.32507 2.438 0 4.2259 0.32507 1.8692 0.2438 3.1694 0.2438 0.81268 0 1.219-0.32507 0.48761-0.40633 0.48761-0.89394 0-0.73141-0.32507-0.97521t-0.89394-0.2438q-0.48761-0.0813-1.219-0.0813-0.7314-0.0813-1.4628-0.40634-1.3003-0.56887-1.5441-1.5441-0.16254-0.97521-0.24381-3.1694l-0.89388-35.595v-1.9504q0-1.6254 0.16254-2.1942 0.2438-0.65014 1.1377-1.0565 0.73141-0.32507 1.3816-0.32507 0.73141-0.0813 1.3003-0.16253 0.56887-0.0813 0.89394-0.2438 0.40634-0.24381 0.40634-0.89395 0-1.0565-1.1378-1.0565h-10.484q-0.65014 0-0.97521 0.40633-0.24381 0.32507-0.40634 0.97521l-10.646 32.263q-0.32507 0.89394-0.65014 0.89394-0.24381 0-0.56888-0.97521l-10.809-32.832q-0.16254-0.4876-0.48761-0.56887-0.2438-0.16253-0.65014-0.16253z" style="stroke-width:1.5238"/><path d="m210.87 409.86q0-2.2755-0.2438-3.9821-0.24381-1.7879-1.0565-2.9256-0.81268-1.219-2.438-1.7879-1.5441-0.65014-4.1446-0.65014-3.1694 0-5.9325 1.1378-2.6818 1.0565-4.7135 2.7631-1.9504 1.6254-3.0882 3.657-1.0565 2.0317-1.0565 3.8196 0 0.65014 0.40634 1.0565 0.48761 0.40634 1.1378 0.40634 2.438 0 3.4945-1.3816 1.1377-1.4628 2.0317-3.4945 1.1377-2.6006 2.3568-3.9821 1.219-1.4628 3.332-1.4628 2.113 0 2.6006 1.5441 0.56888 1.5441 0.56888 4.9573v5.77q0 0.89394-0.16254 1.3003-0.0813 0.32507-0.73141 0.65014l-2.0317 1.0565q-2.9256 1.4628-5.3637 2.9256-2.3568 1.4628-4.0634 3.1694-1.7066 1.6254-2.6006 3.657-0.89394 2.0317-0.89394 4.7135 0 3.0882 1.5441 4.876 1.6254 1.7066 4.2259 1.7066 2.2755 0 4.1446-1.3003 1.8692-1.219 3.9821-3.0069l1.7066-1.4628h0.48761q0.89394 2.7631 2.2755 4.1446t3.4945 1.3816q0.97521 0 2.113-0.65014 1.219-0.65014 2.1942-1.5441 1.0565-0.89394 1.7879-1.7879 0.73141-0.97521 0.73141-1.6254 0-1.219-0.97521-1.219-0.73141 0-1.4628 0.81267-0.73141 0.81268-1.6254 0.81268-1.3816 0-1.7066-1.3003t-0.32507-3.9008zm-6.6639 10.646v6.4201q0 1.6254-0.56887 2.9256-0.4876 1.3003-1.3003 2.2755-0.81267 0.89394-1.7879 1.4628-0.97521 0.4876-1.9504 0.4876-1.3816 0-2.2755-1.219-0.81268-1.219-0.81268-3.5758 0-5.6887 4.7948-8.1268l2.6818-1.3003q0.56887-0.32507 0.81268-0.32507 0.40633 0 0.40633 0.97521z" style="stroke-width:1.5238"/><path d="m231.83 400.6q-3.5758 0-6.5827 1.3816t-5.2011 3.9821q-2.1942 2.5193-3.4945 6.1763-1.219 3.5758-1.219 8.1268 0 4.3884 1.1377 7.9642 1.1378 3.4945 3.1694 6.0138 2.0317 2.438 4.7948 3.7383 2.7631 1.3816 6.0138 1.3816 2.438 0 4.551-0.81268 2.113-0.81267 3.5758-1.8692 1.5441-1.1377 2.3568-2.2755 0.89394-1.219 0.89394-1.9504 0-1.0565-1.0565-1.0565-0.2438 0-0.81267 0.56888-0.48761 0.4876-1.3816 1.1377-0.81267 0.65014-2.113 1.219-1.219 0.48761-2.7631 0.48761-2.438 0-4.4697-1.0565-2.0317-1.1377-3.5758-3.1694-1.4628-2.113-2.3568-5.1198-0.81267-3.0069-0.81267-6.8265 0-3.7383 0.7314-6.6639 0.81268-2.9256 2.0317-4.9573 1.219-2.113 2.7631-3.1694 1.5441-1.1377 3.0069-1.1377 1.1378 0 1.8692 0.56887 0.81267 0.4876 1.4628 1.3816 0.65014 0.89394 1.219 2.2755 0.56888 1.3003 1.3003 2.8444 1.0565 2.3568 2.1942 2.3568 0.97521 0 1.5441-1.7066 0.65014-1.7879 0.65014-4.876 0-1.0565-0.81268-1.9504-0.7314-0.89394-2.0317-1.5441-1.219-0.65014-2.9256-1.0565-1.7066-0.40634-3.657-0.40634z" style="stroke-width:1.5238"/><path d="m249.3 386.46q-1.4628 0-2.5193 1.3815-1.0565 1.3816-1.0565 3.0882t1.0565 3.0882q1.0565 1.3816 2.5193 1.3816 1.4628 0 2.5193-1.3816 1.0565-1.3815 1.0565-3.0882t-1.0565-3.0882q-1.0565-1.3815-2.5193-1.3815zm3.0882 15.603q0-1.7066-0.81268-1.7066-0.32507 0-0.7314 0.40634-0.32507 0.32507-0.89395 0.89394-0.56887 0.56887-1.4628 1.3003-0.81268 0.73141-2.0317 1.4628-2.0317 1.1378-3.1694 1.7066-1.0565 0.56887-1.0565 1.4628 0 0.81267 0.48761 0.89394 0.56887 0 1.1377 0.2438 0.65014 0.16254 1.1378 0.89394 0.56887 0.73141 0.56887 2.9256v19.179q0 1.6254-0.2438 2.3568-0.16254 0.65014-1.0565 1.1378-0.48761 0.2438-0.89394 0.32507-0.40634 0-0.81268 0.0813-0.32507 0.0813-0.56887 0.32507-0.16254 0.24381-0.16254 0.81268 0 1.3816 1.219 1.3816 0.89394 0 2.3568-0.32507 1.4628-0.24381 3.5758-0.24381 1.9504 0 3.657 0.24381 1.7066 0.32507 2.9256 0.32507 1.4628 0 1.4628-1.3003 0-0.56888-0.32507-0.81268-0.24381-0.2438-0.73141-0.32507-0.40634-0.16253-1.0565-0.2438-0.56887-0.0813-1.219-0.40634-0.73141-0.40634-1.0565-1.1377-0.2438-0.73141-0.2438-2.1942z" style="stroke-width:1.5238"/><path d="m266.84 402.14q0-0.89394-0.24381-1.3003-0.2438-0.40633-0.4876-0.40633-0.73141 0-1.7066 1.3003t-3.332 2.6818q-2.0317 1.219-3.0882 1.8692-1.0565 0.56887-1.0565 1.3815 0 0.81268 0.48761 0.89395 0.56887 0 1.219 0.16253 0.65014 0.16254 1.1377 0.89394 0.56888 0.73141 0.56888 2.9256v19.179q0 1.6254-0.24381 2.3568-0.2438 0.73141-1.1377 1.1378-0.48761 0.2438-0.97521 0.32507-0.40634 0-0.73141 0.0813t-0.56887 0.32507q-0.16254 0.24381-0.16254 0.81268 0 1.3816 1.3003 1.3816 0.89395 0 2.3568-0.32507 1.4628-0.24381 3.5758-0.24381 2.0317 0 3.657 0.24381 1.6254 0.32507 2.7631 0.32507 1.4628 0 1.4628-1.219 0-0.7314-0.2438-0.97521-0.24381-0.2438-0.73141-0.32507-0.40634-0.0813-0.97521-0.0813-0.56887-0.0813-1.3003-0.48761-0.81268-0.40634-1.0565-1.1377-0.16253-0.81268-0.16253-2.1942v-17.635q0-4.3884 1.9504-6.5014 1.9504-2.113 5.0386-2.113 3.332 0 5.1198 2.5193 1.7879 2.438 1.7879 7.3141v16.416q0 1.4628-0.16254 2.2755-0.16253 0.73141-1.1377 1.219-0.48761 0.2438-0.97521 0.32507-0.40634 0-0.81268 0.0813-0.32507 0.0813-0.56887 0.32507-0.16253 0.24381-0.16253 0.81268 0 1.3816 1.3003 1.3816 0.81267 0 2.2755-0.32507 1.5441-0.24381 3.657-0.24381 2.113 0 3.7383 0.24381 1.6254 0.32507 2.7631 0.32507 1.4628 0 1.4628-1.3003 0-0.65014-0.32507-0.89395-0.2438-0.2438-0.73141-0.32507-0.4876-0.0813-1.1377-0.16253-0.56888-0.0813-1.1378-0.40634-1.219-0.81267-1.219-3.332v-17.473q0-6.7452-2.8444-10.158-2.7631-3.4945-7.8017-3.4945-2.438 0-4.7135 1.1378-2.1942 1.1377-3.9008 3.2507l-0.89394 1.0565q-0.40634 0.48761-0.65014 0.48761t-0.2438-1.0565z" style="stroke-width:1.5238"/><path d="m301.62 396.05q0-0.89394-0.16254-1.3816-0.0813-0.56887-0.65014-0.56887-0.7314 0-1.7066 1.6254-0.89395 1.6254-2.8444 3.9008-1.1377 1.219-2.113 1.9504-0.89394 0.73141-1.6254 1.219-0.73141 0.48761-1.1378 0.89395-0.40633 0.40633-0.40633 0.89394 0 1.0565 1.4628 1.0565h1.4628q0.81267 0 0.97521 0.7314 0.16253 0.65014 0.16253 1.7879l-0.32507 17.473v3.4132q0 10.321 6.5014 10.321 1.8692 0 3.4945-0.73141 1.7066-0.65014 2.9256-1.6254 1.3003-0.97521 2.0317-1.9504t0.73141-1.5441q0-1.1378-0.81268-1.1378-0.40633 0-0.89394 0.32507-0.40634 0.32507-0.97521 0.81268-0.56887 0.40634-1.3003 0.73141-0.65014 0.32507-1.5441 0.32507-1.8692 0-2.6006-1.7066-0.65014-1.7879-0.65014-5.6075v-20.561q0-1.0565 0.97521-1.0565h6.1763q0.73141 0 0.89394-0.24381 0.16254-0.2438 0.16254-0.89394v-1.6254q0-0.4876-0.16254-0.65014-0.16253-0.16253-0.89394-0.16253h-6.0951q-1.0565 0-1.0565-1.0565z" style="stroke-width:1.5238"/><path d="m309.34 419.94q0 4.3072 1.1377 7.8829 1.219 3.5758 3.332 6.1763 2.1942 2.5193 5.2011 3.9008 3.0069 1.4628 6.6639 1.4628 4.0634 0 7.3141-1.3816t5.4449-3.9008q2.2755-2.5193 3.4945-6.0951 1.219-3.5758 1.219-7.883 0-4.3884-1.219-7.9642-1.1378-3.5758-3.332-6.0951-2.113-2.6006-5.2011-3.9821-3.0882-1.4628-6.8265-1.4628-3.9008 0-7.0703 1.3816-3.1694 1.3816-5.4449 3.9008t-3.4945 6.0951-1.219 7.9642zm16.904-17.066q4.3072 0 6.989 4.876 2.7631 4.7948 2.7631 13.409 0 7.5579-2.6006 11.784-2.5193 4.1446-6.989 4.1446-4.3884 0-7.1515-4.7948-2.6818-4.876-2.6818-13.49 0-7.6391 2.5193-11.784 2.5193-4.1446 7.1515-4.1446z" style="stroke-width:1.5238"/><path d="m355.49 400.6q-4.876 0-8.0455 3.0069-3.0882 2.9256-3.0882 7.9642 0 2.0317 0.48761 3.5758 0.56887 1.4628 1.6254 2.6818 1.0565 1.1378 2.6006 2.1942 1.5441 0.97521 3.5758 2.0317 1.7879 0.97521 3.2507 1.8692 1.4628 0.81268 2.438 1.7879 1.0565 0.89394 1.5441 2.113 0.56887 1.1378 0.56887 2.6818 0 3.0069-1.7066 4.7948-1.6254 1.7879-4.2259 1.7879-4.2259 0-6.5014-4.9573-0.65014-1.3816-0.97521-2.438-0.2438-1.1378-0.4876-1.8692-0.16254-0.81267-0.40634-1.219t-0.81268-0.40634q-0.89394 0-1.0565 1.5441-0.16254 1.4628-0.16254 4.7948v2.0317q0 1.1377 0.16254 1.7879 0.16253 0.65014 0.89394 1.0565 1.1377 0.73141 3.332 1.3003 2.1942 0.65014 4.9573 0.65014 2.7631 0 5.0386-0.89394 2.3568-0.89395 4.0634-2.5193 1.7066-1.7066 2.6006-4.1446 0.97521-2.438 0.97521-5.5262 0-3.9821-1.8692-6.5827-1.8692-2.6818-5.8513-4.7948-1.8692-0.97521-3.4132-1.7066-1.4628-0.81267-2.5193-1.6254-1.0565-0.81267-1.6254-1.7066-0.56887-0.97521-0.56887-2.3568 0-2.113 1.3816-3.4132 1.4628-1.3815 3.8196-1.3815 3.332 0 5.3637 3.4945 0.97521 1.7066 1.1377 2.8444 0.16254 1.1378 1.0565 1.1378 0.81267 0 1.0565-1.3003 0.2438-1.3816 0.2438-4.2259 0-2.113-1.8692-3.0882-1.8692-0.97521-6.989-0.97521z" style="stroke-width:1.5238"/><path d="m377.51 388.49q0-1.6254 0.0813-3.0069 0.16254-1.3816 0.16254-2.5193 0-0.7314-0.16254-1.1377-0.16253-0.40634-0.81267-0.40634-0.40634 0-1.7879 0.97521-1.3003 0.89394-4.1446 1.9504-1.5441 0.56887-2.6818 0.89394-1.0565 0.24381-1.0565 1.1378 0 0.65014 0.56887 0.81267 0.56887 0.0813 1.219 0.40634 0.65014 0.2438 1.219 0.97521 0.56888 0.73141 0.56888 2.5193v40.552q0 1.5441-0.24381 2.3568-0.16253 0.73141-1.4628 1.219-0.65014 0.2438-1.219 0.32507-0.48761 0.0813-0.89395 0.16253-0.32507 0.0813-0.56887 0.32507-0.2438 0.16254-0.2438 0.73141 0 1.3003 1.4628 1.3003 0.97521 0 2.6006-0.2438 1.6254-0.24381 3.9821-0.24381t3.9821 0.24381q1.6254 0.2438 2.438 0.2438 1.3816 0 1.3816-1.1378 0-0.7314-0.32507-0.97521-0.2438-0.2438-0.73141-0.32507-0.40633-0.16253-0.97521-0.16253-0.56887-0.0813-1.1377-0.48761-0.73141-0.4876-0.97521-1.3003-0.2438-0.81267-0.2438-2.0317v-17.635q0-4.3884 1.8692-6.5014 1.9504-2.113 4.876-2.113 6.4201 0 6.4201 9.8334v16.416q0 1.4628-0.2438 2.1942t-1.4628 1.3003q-0.56887 0.2438-1.1377 0.32507-0.48761 0.0813-0.89394 0.16253-0.40634 0.0813-0.65014 0.32507-0.24381 0.24381-0.24381 0.81268 0 1.3003 1.4628 1.3003 1.1377 0 2.7631-0.2438 1.7066-0.24381 3.8196-0.24381 2.0317 0 3.4945 0.24381 1.5441 0.2438 2.438 0.2438 1.219 0 1.219-1.1378 0-0.65014-0.2438-0.89394-0.16254-0.2438-0.56888-0.32507-0.32507-0.16253-0.81267-0.2438-0.48761-0.16254-1.1378-0.65014-0.65014-0.40634-0.81267-1.1378-0.16254-0.7314-0.16254-2.0317v-18.204q0-6.1763-2.7631-9.5083-2.6818-3.332-7.5579-3.332-2.2755 0-4.3884 1.219-2.113 1.1378-3.657 3.1694l-0.81268 1.0565q-0.40634 0.48761-0.65014 0.48761-0.16253 0-0.16253-1.0565z" style="stroke-width:1.5238"/></g><g transform="matrix(1.0838 0 0 1.0834 207.83 265.76)" style="stroke-width:2.2142"><path d="m61.169 17.631c3.8616-4.6671 6.4545-11.166 5.7483-17.631-5.5608 0.22066-12.28 3.7072-16.274 8.3632-3.5748 4.1375-6.6972 10.746-5.8587 17.079 6.2007 0.48546 12.523-3.1445 16.384-7.8115" style="clip-rule:evenodd;fill:#75bd21"/><path d="m65.21 26.614c-8.0052-0.06606-15.446 5.1511-19.532 5.1511-4.3581 0-11.1-4.9319-18.227-4.7995-9.2747 0.13094-17.82 5.339-22.682 13.564h78.457c1.9776-1.8038 3.5924-2.7583 3.7826-2.8732-6.4876-9.4996-16.594-10.802-20.191-10.956-0.53787-0.05448-1.0741-0.08244-1.6078-0.08684z" style="clip-rule:evenodd;fill:#75bd21"/><path d="m4.769 40.53c-0.054285 0.09184-0.11451 0.17872-0.16787 0.27131-2.3884 4.1438-3.7347 8.7776-4.2991 13.612h75.112c1.1326-6.6267 4.8802-11.202 7.8172-13.883z" style="clip-rule:evenodd;fill:#ffc728"/><path d="m0.30207 54.413c-0.52106 4.5224-0.34585 9.2198 0.35513 13.862h76.352c-1.1505-2.6879-1.9062-5.8678-1.9384-9.611-0.01305-1.502 0.11525-2.9151 0.3435-4.2506z" style="clip-rule:evenodd;fill:#ff661c"/><path d="m0.65676 68.275c0.72338 4.7651 2.0008 9.4698 3.6375 13.86l85.22-1.1e-4c0.17434-0.52537 0.34897-1.0655 0.37365-1.1396-0.12844-0.04281-8.8923-3.4053-12.879-12.72z" style="clip-rule:evenodd;fill:#cf0f2b"/><path d="m4.2943 82.135c1.8466 4.9424 4.1349 9.4983 6.623 13.277h72.155c3.7341-5.7953 5.7053-11.092 6.4426-13.277z" style="clip-rule:evenodd;fill:#b01cab"/><path d="m10.917 95.411c0.22374 0.33977 0.44152 0.70315 0.66803 1.0303 4.634 6.7082 10.173 14.255 17.433 13.979 6.9951-0.27583 9.6431-4.5236 18.095-4.5236s10.835 4.5236 18.227 4.3801c7.5247-0.14343 12.302-6.8406 16.903-13.571 0.2983-0.4354 0.55108-0.86244 0.82986-1.2951z" style="clip-rule:evenodd;fill:#00a1de"/></g></g></svg>
